<svg xmlns="http://www.w3.org/2000/svg" viewBox="0 0 413 256.2"><defs><style>.cls-1{fill:#063e3f;}.cls-2{fill:#fff;}</style></defs><title>Asset 3</title><g id="Layer_2" data-name="Layer 2"><g id="Layer_1-2" data-name="Layer 1"><rect class="cls-1" y="101.13" width="413" height="155" rx="77.5"/><circle class="cls-1" cx="207.84" cy="109.96" r="109.96"/><rect class="cls-2" x="192" y="169.46" width="31" height="86.67"/><path class="cls-2" d="M240.82,138.1c-21.59,14.2-37.58,51.14-44.1,68.92A8.16,8.16,0,0,0,203.63,218c18.7,1.73,59.86,3.56,94.88-8.64,31-10.8,42.23-55.8,45.68-75.15a6.64,6.64,0,0,0-6.17-7.8C318.1,125.26,262.82,123.62,240.82,138.1Z"/><path class="cls-2" d="M171.48,138.1c21.59,14.2,37.57,51.14,44.1,68.92A8.16,8.16,0,0,1,208.67,218c-18.71,1.73-59.86,3.56-94.89-8.64-31-10.8-42.22-55.8-45.67-75.15a6.63,6.63,0,0,1,6.16-7.8C94.2,125.26,149.48,123.62,171.48,138.1Z"/><path class="cls-1" d="M256.49,152.05c-12.86,8.46-22.38,30.47-26.27,41.06a4.87,4.87,0,0,0,4.11,6.53c11.15,1,35.67,2.12,56.53-5.15,18.46-6.44,25.16-33.24,27.21-44.77a4,4,0,0,0-3.67-4.65C302.53,144.4,269.6,143.43,256.49,152.05Z"/><path class="cls-1" d="M159.48,152.1c12.86,8.46,22.39,30.46,26.28,41.06a4.86,4.86,0,0,1-4.12,6.52c-11.14,1-35.66,2.12-56.53-5.15C106.65,188.1,100,161.29,97.9,149.76a4,4,0,0,1,3.67-4.65C113.45,144.45,146.38,143.47,159.48,152.1Z"/><path class="cls-2" d="M216.81,190.4a13.79,13.79,0,0,1-20.6-.76c-13.1-15.86-34.76-46.65-34.76-76.86,0-28.87,22.17-53.24,35.21-65.08a13.84,13.84,0,0,1,18.56-.07c13.2,11.94,35.83,36.88,35.83,67.55C251.05,149.15,230.16,176.44,216.81,190.4Z"/><path class="cls-1" d="M213.23,165.7a8.82,8.82,0,0,1-13.16-.49c-8.36-10.12-22.18-29.78-22.18-49.06,0-18.42,14.15-34,22.47-41.54a8.84,8.84,0,0,1,11.85,0c8.42,7.62,22.87,23.54,22.87,43.11C235.08,139.37,221.74,156.79,213.23,165.7Z"/><path class="cls-2" d="M130,208.2s37-30.07,73-30.07c43,0,79.74,30,79.74,30H130"/><path class="cls-2" d="M132,256.2s37-25.07,73-25.07c43,0,79.74,25,79.74,25H132"/></g></g></svg>